# xmcd
#
# Track frame offsets:
#	187
#	13222
#	34105
#	48450
#	65620
#	82682
#	95320
#	115485
#	129032
#	140045
#	152215
#
# Disc length: 2197 seconds
#
# Revision: 4
# Processed by: cddbd v1.5.1PL0 Copyright (c) Steve Scherf et al.
# Submitted via: MusicWizard 7.0.2
#
DISCID=8d08930b
DTITLE=Nanci Griffith - The Last Of The True Believers
DYEAR=1988
DGENRE=Country
TTITLE0=The Last Of The True Believers
TTITLE1=Love At The Five and Dime
TTITLE2=St. Olav's Gate
TTITLE3=More Than A Whisper
TTITLE4=Banks Of The Pontchartrain
TTITLE5=Lookin' For The Time (Workin' Girl)
TTITLE6=Goin' Gone
TTITLE7=One Of These Days
TTITLE8=Love's Found A Shoulder
TTITLE9=Fly By Night
TTITLE10=The Wing and The Wheel
EXTD=(p)1986/(c)1988 Rounder Records Europe, UK\nupc 5014757670138
EXTT0=
EXTT1=
EXTT2=
EXTT3=
EXTT4=
EXTT5=
EXTT6=
EXTT7=
EXTT8=
EXTT9=
EXTT10=
PLAYORDER=
